HIERARCHY
ROOT Hips
{
  OFFSET 0 89.5177 0.535
  CHANNELS 6 Xposition Yposition Zposition Zrotation Xrotation Yrotation
  JOINT Spine
  {
    OFFSET 12.0259 -0.162855 1.69034e-005
    CHANNELS 3 Zrotation Xrotation Yrotation
    JOINT Spine1
    {
      OFFSET 15.3169 -0.0121922 0
      CHANNELS 3 Zrotation Xrotation Yrotation
      JOINT Spine2
      {
        OFFSET 15.3176 -0.0121908 0
        CHANNELS 3 Zrotation Xrotation Yrotation
        JOINT Neck
        {
          OFFSET 19.9142 1.56338 0
          CHANNELS 3 Zrotation Xrotation Yrotation
          JOINT Head
          {
            OFFSET 6.92651 0 0
            CHANNELS 3 Zrotation Xrotation Yrotation
            End Site
            {
              OFFSET 20.7666 0 0
            }
          }
          JOINT LeftShoulder
          {
            OFFSET -6.20654 0.708824 7.28219
            CHANNELS 3 Zrotation Xrotation Yrotation
            JOINT LeftArm
            {
              OFFSET 14.108 0 -1.52588e-005
              CHANNELS 3 Zrotation Xrotation Yrotation
              JOINT LeftForeArm
              {
                OFFSET 28.5802 0 0
                CHANNELS 3 Zrotation Xrotation Yrotation
                JOINT LeftHand
                {
                  OFFSET 27.092 0 0
                  CHANNELS 3 Zrotation Xrotation Yrotation
                  End Site
                  {
                    OFFSET 9.55928 -0.186424 0.145352
                  }
                }
              }
            }
          }
          JOINT RightShoulder
          {
            OFFSET -6.20654 0.708866 -7.28218
            CHANNELS 3 Zrotation Xrotation Yrotation
            JOINT RightArm
            {
              OFFSET 14.108 0 1.52588e-005
              CHANNELS 3 Zrotation Xrotation Yrotation
              JOINT RightForeArm
              {
                OFFSET 28.5802 0 0
                CHANNELS 3 Zrotation Xrotation Yrotation
                JOINT RightHand
                {
                  OFFSET 27.092 0 0
                  CHANNELS 3 Zrotation Xrotation Yrotation
                  End Site
                  {
                    OFFSET 9.55929 -0.186417 -0.145354
                  }
                }
              }
            }
          }
        }
      }
    }
  }
  JOINT LeftUpLeg
  {
    OFFSET 0.005 -0.535 8.837
    CHANNELS 3 Zrotation Xrotation Yrotation
    JOINT LeftLeg
    {
      OFFSET 39.9035 0 0
      CHANNELS 3 Zrotation Xrotation Yrotation
      JOINT LeftFoot
      {
        OFFSET 39.6689 0 0
        CHANNELS 3 Zrotation Xrotation Yrotation
        JOINT LeftToe
        {
          OFFSET 10.1624 13.6296 0
          CHANNELS 3 Zrotation Xrotation Yrotation
          End Site
          {
            OFFSET 8.38147 0 0
          }
        }
      }
    }
  }
  JOINT RightUpLeg
  {
    OFFSET 0.005 -0.535 -8.837
    CHANNELS 3 Zrotation Xrotation Yrotation
    JOINT RightLeg
    {
      OFFSET 39.9035 0 0
      CHANNELS 3 Zrotation Xrotation Yrotation
      JOINT RightFoot
      {
        OFFSET 39.6689 0 0
        CHANNELS 3 Zrotation Xrotation Yrotation
        JOINT RightToe
        {
          OFFSET 10.1624 13.6296 0
          CHANNELS 3 Zrotation Xrotation Yrotation
          End Site
          {
            OFFSET 8.38147 0 0
          }
        }
      }
    }
  }
}
MOTION
Frames:	14
Frame Time:	0.0333333
212.574 88.0367 -223.135 -173.334 -84.5648 97.6928 -0.932623 -1.37981 -0.819369 -1.8857 -2.74549 -1.66164 -1.8857 -2.74549 -1.66165 -8.30748e-012 -9.0191e-006 -5.27751e-005 7.547 -2.37845 1.71521 -177.554 -28.2412 -84.8424 -20.1048 -44.4357 11.7881 -9.32726 0 1.59028e-015 -29.8386 -53.7468 -33.2943 -178.839 19.963 86.6036 -23.5957 36.4382 -4.02309 -7.62781 0 -0 -64.9422 68.3456 68.0756 -2.84737 12.4372 178.51 -12.9665 -1.59028e-015 -0 15.2462 4.15413 -1.33869 90 -3.72721e-017 -3.18055e-015 -9.97265 -8.80099 176.59 -19.818 3.18056e-015 3.97569e-016 15.5991 -4.97141 1.72704 90 -1.44078e-020 -0 
212.584 88.0319 -223.165 -173.422 -84.5599 97.6001 -0.934711 -1.37858 -0.820436 -1.88988 -2.74297 -1.6638 -1.88988 -2.74297 -1.66381 -8.30748e-012 -9.0191e-006 -5.27751e-005 7.6255 -2.42254 1.74097 -177.598 -28.293 -84.9422 -20.0739 -44.4295 11.8757 -9.32294 -3.18055e-015 -3.18055e-015 -29.8559 -53.7846 -33.3181 -178.834 20.0051 86.5962 -23.6578 36.3517 -3.96605 -7.66141 -6.36111e-015 -3.97569e-016 -64.9957 68.3233 68.1336 -2.84355 12.4358 178.523 -12.9826 3.18055e-015 3.97569e-016 15.2735 4.15469 -1.34778 90 -3.10601e-017 -0 -9.96501 -8.88207 176.595 -19.8307 1.59028e-015 7.95139e-016 15.6277 -5.01524 1.7214 90 5.68728e-021 -0 
212.593 88.0297 -223.193 -173.312 -84.5333 97.7046 -0.939006 -1.37551 -0.820348 -1.89834 -2.73585 -1.66363 -1.89834 -2.73585 -1.66364 -8.30748e-012 -9.0191e-006 -5.27751e-005 7.62588 -2.45963 1.7877 -177.617 -28.3309 -84.9876 -20.0791 -44.4721 11.8383 -9.31393 -3.18055e-015 -1.59028e-015 -29.8623 -53.7599 -33.3323 -178.838 20.039 86.6129 -23.6622 36.4005 -3.97487 -7.68547 6.36111e-015 7.95139e-016 -65.0144 68.3269 68.1489 -2.81096 12.4296 178.522 -12.9074 0 -3.97569e-016 15.2565 4.13995 -1.31343 90 3.72721e-016 -0 -9.96008 -8.84828 176.611 -19.8172 -1.59028e-015 -3.97569e-016 15.6417 -5.00805 1.7192 90 -1.30807e-020 7.95139e-016 
212.605 88.028 -223.223 -173.145 -84.5308 97.8553 -0.941033 -1.37543 -0.82014 -1.90491 -2.73113 -1.66323 -1.90491 -2.73113 -1.66324 -8.30768e-012 -9.0191e-006 -5.27751e-005 7.58622 -2.47258 1.76417 -177.615 -28.3381 -84.9856 -20.0418 -44.3387 11.7472 -9.34642 -3.18055e-015 -3.18055e-015 -29.7967 -53.7615 -33.2561 -178.837 20.0634 86.6144 -23.7275 36.2795 -3.86071 -7.66003 3.18055e-015 7.95139e-016 -65.0376 68.3083 68.1696 -2.78985 12.4427 178.547 -12.8997 -3.18055e-015 -7.95139e-016 15.2745 4.13903 -1.32087 90 3.38555e-016 4.77083e-015 -9.92284 -8.85335 176.639 -19.7878 -3.18056e-015 -3.97569e-016 15.6471 -5.02116 1.71435 90 2.52136e-020 7.95139e-016 
212.616 88.0263 -223.244 -173.008 -84.5146 97.9863 -0.942344 -1.37537 -0.819892 -1.9051 -2.73206 -1.66277 -1.9051 -2.73206 -1.66278 -8.30728e-012 -9.0191e-006 -5.27751e-005 7.56525 -2.48126 1.74916 -177.617 -28.3726 -84.9957 -20.042 -44.2998 11.6711 -9.37224 6.36111e-015 -0 -29.8679 -53.7693 -33.3285 -178.83 20.073 86.5947 -23.7524 36.2746 -3.7564 -7.61663 0 3.97569e-016 -64.9144 68.3265 68.0464 -2.77705 12.4555 178.556 -12.8768 1.59028e-015 3.97569e-016 15.2799 4.13625 -1.32251 90 2.45375e-016 -0 -9.9192 -8.82847 176.657 -19.7807 -3.18056e-015 -3.97569e-016 15.655 -5.00387 1.7071 90 2.08533e-021 7.95139e-016 
212.623 88.0244 -223.27 -173.03 -84.5009 97.9578 -0.94355 -1.37533 -0.819684 -1.90544 -2.7341 -1.66238 -1.90544 -2.7341 -1.66239 -8.30808e-012 -9.0191e-006 -5.27751e-005 7.50113 -2.48062 1.77497 -177.628 -28.3735 -85.0187 -19.9979 -44.4032 11.6522 -9.33885 -1.59028e-014 3.18055e-015 -29.9561 -53.7619 -33.4204 -178.827 20.1057 86.5916 -23.7709 36.2981 -3.69794 -7.58313 9.54166e-015 1.19271e-015 -65.0091 68.2918 68.1401 -2.75683 12.4454 178.562 -12.8403 0 3.97569e-016 15.2788 4.12696 -1.31095 90 -3.69615e-016 4.77083e-015 -9.90499 -8.83829 176.671 -19.7664 1.59028e-015 7.95139e-016 15.6677 -5.00569 1.70635 90 8.06835e-019 7.95139e-016 
212.631 88.0215 -223.297 -173.007 -84.4975 97.9774 -0.944848 -1.3753 -0.819597 -1.90657 -2.73615 -1.66222 -1.90657 -2.73615 -1.66223 -8.30748e-012 -9.0191e-006 -5.27751e-005 7.42746 -2.38163 1.75447 -177.623 -28.3887 -85.0097 -19.95 -44.4422 11.6315 -9.34322 -6.36111e-015 -0 -29.9856 -53.7369 -33.4479 -178.83 20.1005 86.5997 -23.7403 36.3509 -3.72393 -7.60982 0 -0 -65.0076 68.2725 68.1397 -2.74176 12.4577 178.574 -12.8412 3.18055e-015 3.97569e-016 15.2988 4.14137 -1.32888 90 3.04389e-016 -0 -9.89625 -8.79354 176.682 -19.7714 0 -1.19271e-015 15.6815 -4.97022 1.70571 90 1.43168e-018 -7.95139e-016 
212.635 88.0185 -223.327 -172.924 -84.4837 98.0575 -0.946176 -1.37528 -0.821199 -1.91772 -2.73707 -1.66645 -1.91772 -2.73707 -1.66646 -8.30768e-012 -9.0191e-006 -5.27751e-005 7.48295 -2.40535 1.80809 -177.625 -28.3958 -85.0151 -19.9177 -44.3384 11.6364 -9.36775 -3.18055e-015 1.59028e-015 -29.9346 -53.7481 -33.3957 -178.831 20.1188 86.6054 -23.791 36.1409 -3.74947 -7.62948 -3.18055e-015 7.95139e-016 -64.9573 68.3059 68.0864 -2.72041 12.4776 178.576 -12.8189 0 3.97569e-016 15.3105 4.14958 -1.33363 90 5.90142e-017 -0 -9.86901 -8.80121 176.691 -19.7565 -6.36111e-015 -7.95139e-016 15.7057 -4.96554 1.70533 90 7.03706e-019 -7.95139e-016 
212.64 88.0153 -223.354 -172.89 -84.4706 98.0894 -0.947431 -1.37527 -0.82437 -1.92223 -2.7329 -1.67694 -1.92223 -2.7329 -1.67695 -8.30688e-012 -9.0191e-006 -5.27751e-005 7.66468 -2.45359 1.87952 -177.639 -28.5065 -85.0622 -19.9853 -44.4516 11.8431 -9.33779 -6.36111e-015 -4.77083e-015 -30.1112 -53.7212 -33.578 -178.805 20.098 86.5263 -23.742 35.9485 -3.76808 -7.74829 6.36111e-015 1.19271e-015 -64.9122 68.3339 68.0432 -2.70887 12.4823 178.58 -12.8069 3.18055e-015 3.97569e-016 15.3229 4.14512 -1.3362 90 -1.3977e-016 -0 -9.86873 -8.80239 176.694 -19.7619 0 7.95139e-016 15.7237 -4.97473 1.70513 90 -4.2465e-020 -1.59028e-015 
212.641 88.0123 -223.381 -172.797 -84.4646 98.1727 -0.948452 -1.37527 -0.826653 -1.92177 -2.72555 -1.67649 -1.92177 -2.72555 -1.6765 -8.30748e-012 -9.0191e-006 -5.27751e-005 7.83795 -2.50873 1.9339 -177.605 -28.49 -84.9883 -19.9832 -44.0676 11.8787 -9.50485 -3.18055e-015 3.18055e-015 -29.7697 -53.7609 -33.2238 -178.81 20.0852 86.5383 -23.6309 36.0778 -3.95365 -7.79525 0 3.97569e-016 -64.9285 68.3215 68.0613 -2.65849 12.44 178.576 -12.7356 1.59028e-015 1.19271e-015 15.3086 4.1038 -1.2838 90 -1.49089e-016 -0 -9.84105 -8.80295 176.709 -19.7466 3.18056e-015 3.97569e-016 15.7392 -4.98486 1.70505 90 2.42657e-020 7.95139e-016 
212.641 88.0081 -223.411 -172.528 -84.4778 98.4266 -0.94913 -1.37527 -0.827654 -1.92085 -2.72359 -1.67685 -1.92085 -2.72359 -1.67686 -8.30748e-012 -9.0191e-006 -5.27751e-005 7.97276 -2.55541 1.96539 -177.6 -28.5195 -84.9839 -20.0533 -43.9419 12.006 -9.34731 3.18055e-015 -1.59028e-015 -29.8041 -53.7666 -33.2608 -178.802 20.0614 86.5119 -23.5761 35.9663 -4.07702 -7.82104 3.18055e-015 7.95139e-016 -64.9543 68.3473 68.083 -2.65632 12.4891 178.605 -12.8058 3.18055e-015 7.95139e-016 15.3679 4.12748 -1.32748 90 -3.41661e-017 -1.59028e-015 -9.80342 -8.80315 176.725 -19.7425 1.59028e-015 3.97569e-016 15.7538 -4.99705 1.70504 90 1.00096e-019 -7.95139e-016 
212.641 88.004 -223.443 -172.304 -84.4875 98.6481 -0.949393 -1.37526 -0.828606 -1.91898 -2.72178 -1.67786 -1.91898 -2.72178 -1.67787 -8.30728e-012 -9.0191e-006 -5.27751e-005 8.07893 -2.61088 2.00394 -177.58 -28.4739 -84.9336 -20.0193 -43.8262 12.0059 -9.28721 6.36111e-015 -0 -29.6124 -53.7345 -33.0544 -178.805 20.0452 86.5163 -23.5798 35.9959 -4.19191 -7.72947 0 -3.97569e-016 -64.8736 68.4171 67.9975 -2.59445 12.4997 178.597 -12.7591 0 -3.97569e-016 15.3698 4.1219 -1.30188 90 -2.29845e-016 -4.77083e-015 -9.77343 -8.80088 176.732 -19.7505 1.59028e-015 7.95139e-016 15.7789 -5.00977 1.70506 90 -2.55927e-020 -7.95139e-016 
212.638 88.0006 -223.472 -172.138 -84.4817 98.8057 -0.946011 -1.37526 -0.829496 -1.91213 -2.72017 -1.67942 -1.91213 -2.72017 -1.67943 -8.30688e-012 -9.0191e-006 -5.27751e-005 8.05853 -2.64366 2.03332 -177.565 -28.4969 -84.906 -20.0112 -43.8711 12.0302 -9.23069 0 -0 -29.5835 -53.7774 -33.0303 -178.792 20.0412 86.4795 -23.6319 35.8956 -4.19427 -7.67153 -1.27222e-014 -3.97569e-016 -64.8504 68.4025 67.9783 -2.54345 12.4989 178.589 -12.6991 0 -0 15.3647 4.09829 -1.26315 90 9.31803e-018 -0 -9.75348 -8.7566 176.739 -19.7439 3.18056e-015 1.59028e-015 15.7925 -4.98286 1.70871 90 -9.3423e-019 -0 
212.63 87.9954 -223.496 -171.891 -84.4696 99.0527 -0.940253 -1.37525 -0.830311 -1.90069 -2.7188 -1.6837 -1.90069 -2.7188 -1.6837 -8.30708e-012 -9.0191e-006 -5.27751e-005 8.00185 -2.69551 2.04655 -177.563 -28.4997 -84.9029 -19.9643 -43.8847 12.0231 -9.2369 6.36111e-015 -3.18055e-015 -29.7081 -53.7358 -33.1554 -178.795 20.002 86.4812 -23.5381 35.869 -4.2269 -7.72084 0 -0 -64.8065 68.4251 67.9342 -2.52704 12.509 178.581 -12.6947 3.18055e-015 -0 15.3845 4.0912 -1.25186 90 1.45982e-016 -1.59028e-015 -9.75858 -8.77591 176.739 -19.7672 -3.18056e-015 -7.95139e-016 15.8214 -5.02544 1.71486 90 5.59249e-021 7.95139e-016 
